<svg xmlns="http://www.w3.org/2000/svg" viewBox="0 0 96 96" role="img" aria-labelledby="title desc">
  <title id="title">Trellis mark C</title>
  <desc id="desc">A trellis lattice panel holding a single agent node.</desc>
  <g fill="none" stroke="#161c24">
    <rect x="15" y="15" width="66" height="66" rx="15" stroke-width="5"/>
    <g stroke-width="2.6" clip-path="url(#c-panel)"><path d="M-119.5 76 L-63.5 20"/><path d="M-119.5 20 L-63.5 76"/><path d="M-104 76 L-48 20"/><path d="M-104 20 L-48 76"/><path d="M-88.5 76 L-32.5 20"/><path d="M-88.5 20 L-32.5 76"/><path d="M-73 76 L-17 20"/><path d="M-73 20 L-17 76"/><path d="M-57.5 76 L-1.5 20"/><path d="M-57.5 20 L-1.5 76"/><path d="M-42 76 L14 20"/><path d="M-42 20 L14 76"/><path d="M-26.5 76 L29.5 20"/><path d="M-26.5 20 L29.5 76"/><path d="M-11 76 L45 20"/><path d="M-11 20 L45 76"/><path d="M4.5 76 L60.5 20"/><path d="M4.5 20 L60.5 76"/><path d="M20 76 L76 20"/><path d="M20 20 L76 76"/><path d="M35.5 76 L91.5 20"/><path d="M35.5 20 L91.5 76"/><path d="M51 76 L107 20"/><path d="M51 20 L107 76"/><path d="M66.5 76 L122.5 20"/><path d="M66.5 20 L122.5 76"/><path d="M82 76 L138 20"/><path d="M82 20 L138 76"/><path d="M97.5 76 L153.5 20"/><path d="M97.5 20 L153.5 76"/><path d="M113 76 L169 20"/><path d="M113 20 L169 76"/><path d="M128.5 76 L184.5 20"/><path d="M128.5 20 L184.5 76"/><path d="M144 76 L200 20"/><path d="M144 20 L200 76"/><path d="M159.5 76 L215.5 20"/><path d="M159.5 20 L215.5 76"/></g>
  </g>
  <circle cx="48" cy="48" r="10.5" fill="#ffffff"/>
  <circle cx="48" cy="48" r="6.5" fill="#161c24"/>
  <defs><clipPath id="c-panel"><rect x="20" y="20" width="56" height="56" rx="11"/></clipPath></defs>
</svg>