<svg xmlns="http://www.w3.org/2000/svg" width="1440" height="1440" viewBox="0 0 1440 1440">
  <rect width="1440" height="1440" fill="#fcfcfa"/>
  <g transform="translate(180 0)">
    <g fill="none" stroke="#e1e6ec" stroke-width="2">
  <path d="M60 150H1020M60 1338H1020"/>
  <path d="M60 150v18M1020 150v18M60 1338v-18M1020 1338v-18"/>
</g>
<g fill="#3d6fde" opacity="0.82"><rect x="60" y="150" width="42" height="3"/><rect x="978" y="1335" width="42" height="3"/></g>
    <g transform="translate(60 48) scale(0.42)" fill="none" stroke="#3d6fde" stroke-width="6.5" stroke-linecap="round" stroke-linejoin="round">
  <path d="M16 48h64"/>
  <path d="M26 34v28M48 20v56M70 34v28"/>
</g>
  <text x="112" y="91" text-anchor="start" font-family="Helvetica Neue, PingFang SC, Arial, sans-serif" font-size="21" font-weight="700" letter-spacing="2.4" fill="#15202b">AGENT TRELLIS</text>
  <text x="1020" y="91" text-anchor="end" font-family="Menlo, SFMono-Regular, monospace" font-size="15" font-weight="400" letter-spacing="1.7" fill="#687582">MIGRATION / 02</text>
    <text x="60" y="196" text-anchor="start" font-family="Menlo, SFMono-Regular, monospace" font-size="15" font-weight="400" letter-spacing="2" fill="#3d6fde">02 / 04</text>
    <text x="60" y="220" text-anchor="start" font-family="Menlo, SFMono-Regular, monospace" font-size="15" font-weight="400" letter-spacing="2.2" fill="#3d6fde">UNIFIED CODE AGENT RUNTIME</text>
    <rect x="60" y="282" width="7" height="166" fill="#3d6fde"/>
    <text x="94" y="330" text-anchor="start" font-family="Helvetica Neue, PingFang SC, Arial, sans-serif" font-size="78" font-weight="760" letter-spacing="-1.5" fill="#15202b">一条命令，</text><text x="94" y="426" text-anchor="start" font-family="Helvetica Neue, PingFang SC, Arial, sans-serif" font-size="78" font-weight="760" letter-spacing="-1.5" fill="#15202b">迁移现有配置。</text>
    <text x="96" y="562" text-anchor="start" font-family="Helvetica Neue, PingFang SC, Arial, sans-serif" font-size="27" font-weight="450" letter-spacing="0" fill="#687582">预览、备份、回滚，让 Agent 配置迁移</text><text x="96" y="597" text-anchor="start" font-family="Helvetica Neue, PingFang SC, Arial, sans-serif" font-size="27" font-weight="450" letter-spacing="0" fill="#687582">可检查、可恢复。</text>

    <text x="540" y="690" text-anchor="middle" font-family="Menlo, SFMono-Regular, monospace" font-size="15" font-weight="400" letter-spacing="2.2" fill="#687582">PREVIEW / BACKUP / ROLLBACK</text>
    <path d="M265 744h112M703 744h112M265 1012h112M703 1012h112" fill="none" stroke="#e1e6ec" stroke-width="2"/>
    <path d="M265 744v28M815 744v28M265 1012v-28M815 1012v-28" fill="none" stroke="#e1e6ec" stroke-width="2"/>
    <text x="540" y="775" text-anchor="middle" font-family="Menlo, SFMono-Regular, monospace" font-size="13" font-weight="400" letter-spacing="1.6" fill="#687582">AGENT PATHS</text>
    <g transform="translate(384 780) scale(3.2)" fill="none" stroke="#3d6fde" stroke-width="6.5" stroke-linecap="round" stroke-linejoin="round">
  <path d="M16 48h64"/>
  <path d="M26 34v28M48 20v56M70 34v28"/>
</g>
    <text x="540" y="1080" text-anchor="middle" font-family="Menlo, SFMono-Regular, monospace" font-size="14" font-weight="400" letter-spacing="2" fill="#3d6fde">SHARED RUNTIME / 02</text>

    <text x="60" y="1148" text-anchor="start" font-family="Menlo, SFMono-Regular, monospace" font-size="15" font-weight="400" letter-spacing="1.6" fill="#687582">PREVIEW · BACKUP · MIGRATE · ROLLBACK</text>
    <text x="1020" y="1148" text-anchor="end" font-family="Menlo, SFMono-Regular, monospace" font-size="15" font-weight="400" letter-spacing="1.6" fill="#687582">agent-trellis.dev</text>
    <path d="M60 1180H1020" stroke="#15202b" stroke-width="3"/>
    <circle cx="72" cy="1263" r="5" fill="#3d6fde"/>
    <text x="92" y="1272" text-anchor="start" font-family="Menlo, SFMono-Regular, monospace" font-size="25" font-weight="500" letter-spacing="0.2" fill="#15202b">$ npm i -g agent-trellis</text>
    <text x="1020" y="1272" text-anchor="end" font-family="Menlo, SFMono-Regular, monospace" font-size="15" font-weight="400" letter-spacing="1.5" fill="#687582">OPEN SOURCE / LOCAL FIRST</text>
  </g>
</svg>